<svg width="96" height="96" viewBox="0 0 96 96" fill="none" xmlns="http://www.w3.org/2000/svg">
  <rect x="4" y="4" width="88" height="88" rx="20" fill="#0D1117" stroke="#2EE6A6" stroke-width="2"/>
  <path d="M24 30L38 66H46L60 30H52L42 56L32 30H24Z" fill="#3AA0FF"/>
  <path d="M72 32C67 30 61 30 56 32C51 34 49 38 50 42C51 46 56 47 60 48C65 49 67 50 67 53C67 57 62 59 56 57L54 61C61 65 70 64 74 59C76 56 77 52 76 48C75 43 70 41 65 40C60 39 58 38 58 35C58 32 64 31 70 34L72 32Z" fill="#2EE6A6"/>
</svg>
